<?xml version="1.0" encoding="utf-8"?>
<!-- Generator: Adobe Illustrator 22.0.1, SVG Export Plug-In . SVG Version: 6.00 Build 0)  -->
<svg version="1.1" id="Layer_1" xmlns="http://www.w3.org/2000/svg" xmlns:xlink="http://www.w3.org/1999/xlink" x="0px" y="0px"
	 viewBox="0 0 1920 1080" style="enable-background:new 0 0 1920 1080;" xml:space="preserve">
<style type="text/css">
	.st0{clip-path:url(#SVGID_2_);}
	.st1{fill:#E9EDF6;}
</style>
<g>
	<defs>
		<rect id="SVGID_1_" width="1920" height="1080"/>
	</defs>
	<clipPath id="SVGID_2_">
		<use xlink:href="#SVGID_1_"  style="overflow:visible;"/>
	</clipPath>
	<g class="st0" opacity="0.1">
		<path class="st1" d="M595.9,135.6h41.9c3.6,0,5.9,3.9,4.1,7.1L496.5,394.4c-1.7,2.9-4.8,4.7-8.2,4.7h-41.9c-3.6,0-5.9-3.9-4.1-7.1
			l145.4-251.8C589.4,137.4,592.5,135.6,595.9,135.6"/>
		<path class="st1" d="M205,927.3h41.9c3.6,0,5.9,3.9,4.1,7.1l-145.4,251.8c-1.7,2.9-4.8,4.7-8.2,4.7H55.5c-3.6,0-5.9-3.9-4.1-7.1
			L196.8,932C198.5,929.1,201.6,927.3,205,927.3"/>
		<path class="st1" d="M984.4,927.3h41.9c3.6,0,5.9,3.9,4.1,7.1l-145.4,251.8c-1.7,2.9-4.8,4.7-8.2,4.7H835c-3.6,0-5.9-3.9-4.1-7.1
			L976.3,932C978,929.1,981.1,927.3,984.4,927.3"/>
		<path class="st1" d="M1945.3,927.3h41.9c3.6,0,5.9,3.9,4.1,7.1L1846,1186.2c-1.7,2.9-4.8,4.7-8.2,4.7h-41.9
			c-3.6,0-5.9-3.9-4.1-7.1L1937.2,932C1938.9,929.1,1942,927.3,1945.3,927.3"/>
		<path class="st1" d="M1562.9,662.5h41.9c3.6,0,5.9,3.9,4.1,7.1l-145.4,251.8c-1.7,2.9-4.8,4.7-8.2,4.7h-41.9
			c-3.6,0-5.9-3.9-4.1-7.1l145.4-251.8C1556.4,664.3,1559.5,662.5,1562.9,662.5"/>
		<path class="st1" d="M1925.3,398.5h41.9c3.6,0,5.9,3.9,4.1,7.1L1826,657.4c-1.7,2.9-4.8,4.7-8.2,4.7h-41.9c-3.6,0-5.9-3.9-4.1-7.1
			l145.4-251.8C1918.8,400.3,1921.9,398.5,1925.3,398.5"/>
		<path class="st1" d="M1277.5,282.9h41.9c3.6,0,5.9,3.9,4.1,7.1l-145.4,251.8c-1.7,2.9-4.8,4.7-8.2,4.7H1128
			c-3.6,0-5.9-3.9-4.1-7.1l145.4-251.8C1271,284.7,1274.1,282.9,1277.5,282.9"/>
		<path class="st1" d="M961.2,401.5h41.9c3.6,0,5.9,3.9,4.1,7.1L861.9,660.3c-1.7,2.9-4.8,4.7-8.2,4.7h-41.9c-3.6,0-5.9-3.9-4.1-7.1
			l145.4-251.8C954.8,403.2,957.9,401.5,961.2,401.5"/>
		<path class="st1" d="M331.9,201.5h20.9c1.8,0,2.9,2,2,3.5l-72.5,125.6c-0.8,1.5-2.4,2.3-4.1,2.3h-20.9c-1.8,0-2.9-2-2-3.5
			l72.5-125.6C328.6,202.4,330.2,201.5,331.9,201.5"/>
		<path class="st1" d="M1502.5,201.5h20.9c1.8,0,2.9,2,2,3.5L1453,330.6c-0.8,1.5-2.4,2.3-4.1,2.3H1428c-1.8,0-2.9-2-2-3.5
			l72.5-125.6C1499.3,202.4,1500.9,201.5,1502.5,201.5"/>
		<path class="st1" d="M1581.3-62h20.9c1.8,0,2.9,2,2,3.5l-72.5,125.6c-0.8,1.5-2.4,2.3-4.1,2.3h-20.9c-1.8,0-2.9-2-2-3.5
			l72.5-125.6C1578-61.1,1579.6-62,1581.3-62"/>
		<path class="st1" d="M920.1-62H941c1.8,0,2.9,2,2,3.5L870.5,67.2c-0.8,1.5-2.4,2.3-4.1,2.3h-20.9c-1.8,0-2.9-2-2-3.5L916-59.6
			C916.9-61.1,918.4-62,920.1-62"/>
		<path class="st1" d="M1896.7-62h20.9c1.8,0,2.9,2,2,3.5l-72.5,125.6c-0.8,1.5-2.4,2.3-4.1,2.3h-20.9c-1.8,0-2.9-2-2-3.5
			l72.5-125.6C1893.5-61.1,1895-62,1896.7-62"/>
		<path class="st1" d="M1423.8,464.6h20.9c1.8,0,2.9,2,2,3.5l-72.5,125.6c-0.8,1.5-2.4,2.3-4.1,2.3h-20.9c-1.8,0-2.9-2-2-3.5
			l72.5-125.6C1420.6,465.5,1422.1,464.6,1423.8,464.6"/>
		<path class="st1" d="M409.1,599.3H430c1.8,0,2.9,2,2,3.5l-72.5,125.6c-0.8,1.5-2.4,2.3-4.1,2.3h-20.9c-1.8,0-2.9-2-2-3.5
			L405,601.6C405.9,600.2,407.4,599.3,409.1,599.3"/>
		<path class="st1" d="M486.6,993.4h20.9c1.8,0,2.9,2,2,3.5L437,1122.5c-0.8,1.5-2.4,2.3-4.1,2.3H412c-1.8,0-2.9-2-2-3.5l72.5-125.6
			C483.4,994.3,484.9,993.4,486.6,993.4"/>
		<path class="st1" d="M1112.3,993.4h20.9c1.8,0,2.9,2,2,3.5l-72.5,125.6c-0.8,1.5-2.4,2.3-4.1,2.3h-20.9c-1.8,0-2.9-2-2-3.5
			l72.5-125.6C1109.1,994.3,1110.7,993.4,1112.3,993.4"/>
		<path class="st1" d="M175.6-62h20.9c1.8,0,2.9,2,2,3.5L126,67.2c-0.8,1.5-2.4,2.3-4.1,2.3H101c-1.8,0-2.9-2-2-3.5l72.5-125.6
			C172.4-61.1,173.9-62,175.6-62"/>
		<path class="st1" d="M324.5,486.7h13.9c1.2,0,1.9,1.3,1.3,2.3l-48.1,83.4c-0.6,1-1.6,1.6-2.7,1.6H275c-1.2,0-2-1.3-1.4-2.3
			l48.2-83.4C322.4,487.3,323.4,486.7,324.5,486.7"/>
		<path class="st1" d="M635,750.6h13.9c1.2,0,1.9,1.3,1.4,2.3l-48.2,83.4c-0.6,1-1.6,1.6-2.7,1.6h-13.9c-1.2,0-2-1.3-1.4-2.3
			l48.2-83.4C632.9,751.2,633.9,750.6,635,750.6"/>
		<path class="st1" d="M1177.8,750.6h13.9c1.2,0,1.9,1.3,1.4,2.3l-48.2,83.4c-0.6,1-1.6,1.6-2.7,1.6h-13.9c-1.2,0-2-1.3-1.4-2.3
			l48.2-83.4C1175.7,751.2,1176.7,750.6,1177.8,750.6"/>
		<path class="st1" d="M1731.1,750.6h13.9c1.2,0,1.9,1.3,1.4,2.3l-48.2,83.4c-0.6,1-1.6,1.6-2.7,1.6h-13.9c-1.2,0-2-1.3-1.4-2.3
			l48.2-83.4C1729,751.2,1730,750.6,1731.1,750.6"/>
		<path class="st1" d="M1810.5,223.7h13.9c1.2,0,2,1.3,1.4,2.3l-48.2,83.4c-0.6,1-1.6,1.6-2.7,1.6H1761c-1.2,0-2-1.3-1.4-2.3
			l48.2-83.4C1808.4,224.3,1809.4,223.7,1810.5,223.7"/>
		<path class="st1" d="M814.8,223.7h13.9c1.2,0,1.9,1.3,1.4,2.3l-48.2,83.4c-0.6,1-1.6,1.6-2.7,1.6h-13.9c-1.2,0-2-1.3-1.4-2.3
			l48.2-83.4C812.7,224.3,813.7,223.7,814.8,223.7"/>
		<path class="st1" d="M1261.3-40.8h13.9c1.2,0,1.9,1.3,1.4,2.3l-48.2,83.4c-0.6,1-1.6,1.6-2.7,1.6h-13.9c-1.2,0-2-1.3-1.4-2.3
			l48.2-83.4C1259.1-40.3,1260.2-40.8,1261.3-40.8"/>
		<path class="st1" d="M48.7,401.5h41.9c3.6,0,5.9,3.9,4.1,7.1L-50.7,660.3c-1.7,2.9-4.8,4.7-8.2,4.7h-41.9c-3.6,0-5.9-3.9-4.1-7.1
			L40.5,406.2C42.2,403.2,45.3,401.5,48.7,401.5"/>
	</g>
</g>
</svg>
